<svg width="16" height="16" viewBox="0 0 16 16" fill="none" xmlns="http://www.w3.org/2000/svg">
<path fill-rule="evenodd" clip-rule="evenodd" d="M3.74925 2.9494C2.64325 3.45496 1.83301 4.65743 1.83301 6.09134C1.83301 7.55627 2.43249 8.68543 3.29187 9.65312C4.00016 10.4507 4.85757 11.1117 5.69376 11.7563C5.89236 11.9095 6.08977 12.0617 6.2837 12.2145C6.63439 12.491 6.94722 12.7336 7.24875 12.9098C7.55044 13.0861 7.79327 13.1666 7.99967 13.1666C8.20608 13.1666 8.44891 13.0861 8.7506 12.9098C9.05213 12.7336 9.36496 12.491 9.71564 12.2145C9.90957 12.0617 10.107 11.9095 10.3056 11.7563C11.1418 11.1117 11.9992 10.4507 12.7075 9.65312C13.5669 8.68543 14.1663 7.55627 14.1663 6.09134C14.1663 4.65743 13.3561 3.45496 12.2501 2.9494C11.1756 2.45826 9.7319 2.58833 8.35992 4.01376C8.26566 4.11169 8.1356 4.16703 7.99967 4.16703C7.86375 4.16703 7.73369 4.11169 7.63943 4.01376C6.26745 2.58833 4.82372 2.45826 3.74925 2.9494ZM7.99968 2.97248C6.45831 1.59344 4.73232 1.40052 3.33352 2.03991C1.85615 2.71522 0.833008 4.2833 0.833008 6.09134C0.833008 7.86836 1.57334 9.22398 2.54415 10.3171C3.32159 11.1926 4.27316 11.9252 5.11356 12.5723C5.30407 12.719 5.48886 12.8613 5.66462 12.9999C6.00611 13.2691 6.3727 13.5561 6.74422 13.7732C7.11558 13.9902 7.53941 14.1666 7.99967 14.1666C8.45994 14.1666 8.88377 13.9902 9.25513 13.7732C9.62665 13.5561 9.99324 13.2691 10.3347 12.9999C10.5105 12.8613 10.6953 12.719 10.8858 12.5723C11.7262 11.9252 12.6778 11.1926 13.4552 10.3171C14.426 9.22398 15.1663 7.86836 15.1663 6.09134C15.1663 4.2833 14.1432 2.71522 12.6658 2.03991C11.267 1.40052 9.54105 1.59344 7.99968 2.97248Z" fill="#1C202E"/>
</svg>
