<svg width="44" height="44" viewBox="0 0 44 44" fill="none" xmlns="http://www.w3.org/2000/svg">
<g clip-path="url(#clip0_197_14199)">
<path fill-rule="evenodd" clip-rule="evenodd" d="M25.3333 16.375C25.5024 16.375 25.6643 16.4435 25.782 16.5649L29.1153 20.0024C29.3556 20.2502 29.3495 20.6459 29.1017 20.8862C28.8539 21.1265 28.4583 21.1204 28.218 20.8726L25.9583 18.5423L25.9583 27C25.9583 27.3452 25.6785 27.625 25.3333 27.625C24.9881 27.625 24.7083 27.3452 24.7083 27L24.7083 18.5423L22.4487 20.8726C22.2084 21.1204 21.8127 21.1265 21.5649 20.8862C21.3171 20.6459 21.311 20.2502 21.5513 20.0024L24.8846 16.5649C25.0023 16.4435 25.1642 16.375 25.3333 16.375ZM18.6666 16.375C19.0118 16.375 19.2916 16.6548 19.2916 17L19.2916 25.4577L21.5513 23.1274C21.7916 22.8796 22.1873 22.8735 22.4351 23.1138C22.6829 23.3541 22.689 23.7498 22.4487 23.9976L19.1153 27.4351C18.9976 27.5565 18.8357 27.625 18.6666 27.625C18.4976 27.625 18.3357 27.5565 18.218 27.4351L14.8846 23.9976C14.6443 23.7498 14.6504 23.3541 14.8982 23.1138C15.146 22.8735 15.5417 22.8796 15.782 23.1274L18.0416 25.4577L18.0416 17C18.0416 16.6548 18.3215 16.375 18.6666 16.375Z" fill="#EA580C"/>
</g>
<defs>
<clipPath id="clip0_197_14199">
<rect width="44" height="44" fill="white"/>
</clipPath>
</defs>
</svg>
