<svg width="44" height="44" viewBox="0 0 44 44" fill="none" xmlns="http://www.w3.org/2000/svg">
<path fill-rule="evenodd" clip-rule="evenodd" d="M29.2917 17.8334C29.2917 18.1786 29.0119 18.4584 28.6667 18.4584L15.3334 18.4584C14.9882 18.4584 14.7084 18.1786 14.7084 17.8334C14.7084 17.4882 14.9882 17.2084 15.3334 17.2084L28.6667 17.2084C29.0119 17.2084 29.2917 17.4882 29.2917 17.8334Z" fill="#F96332"/>
<path fill-rule="evenodd" clip-rule="evenodd" d="M29.2917 22C29.2917 22.3452 29.0119 22.625 28.6667 22.625L15.3334 22.625C14.9882 22.625 14.7084 22.3452 14.7084 22C14.7084 21.6548 14.9882 21.375 15.3334 21.375L28.6667 21.375C29.0119 21.375 29.2917 21.6548 29.2917 22Z" fill="#F96332"/>
<path fill-rule="evenodd" clip-rule="evenodd" d="M29.2917 26.1666C29.2917 26.5118 29.0119 26.7916 28.6667 26.7916L15.3334 26.7916C14.9882 26.7916 14.7084 26.5118 14.7084 26.1666C14.7084 25.8214 14.9882 25.5416 15.3334 25.5416L28.6667 25.5416C29.0119 25.5416 29.2917 25.8214 29.2917 26.1666Z" fill="#F96332"/>
</svg>
